<svg width="39" height="39" viewBox="0 0 39 39" fill="none" xmlns="http://www.w3.org/2000/svg">
<g filter="url(#filter0_d_792_582)">
<path fill-rule="evenodd" clip-rule="evenodd" d="M19.4043 15.4043C16.337 15.4043 13.8426 12.9099 13.8426 9.84258C13.8426 6.77529 16.337 4.28086 19.4043 4.28086C22.4716 4.28086 24.966 6.77529 24.966 9.84258C24.966 12.9099 22.4716 15.4043 19.4043 15.4043ZM24.6295 16.34C26.5289 14.8119 27.7469 12.4705 27.7469 9.84258C27.7469 5.2347 24.0122 1.5 19.4043 1.5C14.7964 1.5 11.0617 5.2347 11.0617 9.84258C11.0617 12.4705 12.2797 14.8119 14.1791 16.34C9.09149 18.2519 5.5 22.9752 5.5 29.3086H8.28086C8.28086 22.3565 13.2711 18.1852 19.4043 18.1852C25.5375 18.1852 30.5278 22.3565 30.5278 29.3086H33.3086C33.3086 22.9752 29.7171 18.2519 24.6295 16.34Z" fill="#F0F6FD"/>
<path fill-rule="evenodd" clip-rule="evenodd" d="M19.4043 15.4043C16.337 15.4043 13.8426 12.9099 13.8426 9.84258C13.8426 6.77529 16.337 4.28086 19.4043 4.28086C22.4716 4.28086 24.966 6.77529 24.966 9.84258C24.966 12.9099 22.4716 15.4043 19.4043 15.4043ZM24.6295 16.34C26.5289 14.8119 27.7469 12.4705 27.7469 9.84258C27.7469 5.2347 24.0122 1.5 19.4043 1.5C14.7964 1.5 11.0617 5.2347 11.0617 9.84258C11.0617 12.4705 12.2797 14.8119 14.1791 16.34C9.09149 18.2519 5.5 22.9752 5.5 29.3086H8.28086C8.28086 22.3565 13.2711 18.1852 19.4043 18.1852C25.5375 18.1852 30.5278 22.3565 30.5278 29.3086H33.3086C33.3086 22.9752 29.7171 18.2519 24.6295 16.34Z" stroke="white" stroke-width="3"/>
</g>
<defs>
<filter id="filter0_d_792_582" x="0" y="0" width="38.8086" height="38.8086" filterUnits="userSpaceOnUse" color-interpolation-filters="sRGB">
<feFlood flood-opacity="0" result="BackgroundImageFix"/>
<feColorMatrix in="SourceAlpha" type="matrix" values="0 0 0 0 0 0 0 0 0 0 0 0 0 0 0 0 0 0 127 0" result="hardAlpha"/>
<feOffset dy="4"/>
<feGaussianBlur stdDeviation="2"/>
<feComposite in2="hardAlpha" operator="out"/>
<feColorMatrix type="matrix" values="0 0 0 0 0 0 0 0 0 0 0 0 0 0 0 0 0 0 0.25 0"/>
<feBlend mode="normal" in2="BackgroundImageFix" result="effect1_dropShadow_792_582"/>
<feBlend mode="normal" in="SourceGraphic" in2="effect1_dropShadow_792_582" result="shape"/>
</filter>
</defs>
</svg>
